<svg xmlns="http://www.w3.org/2000/svg" viewBox="0 0 16 16">
  <path d="M3,14 L3,13 L4,13 L4,12 L5,12 L5,11 L6,11 L6,10 L7,10 L7,9 L8,9 L8,8 L9,8 L9,7 L10,7 L10,6 L11,6 L11,5 L12,5 L12,4 L13,4 L13,3 L14,3 L14,2 L15,2 L15,1 L14,1 L14,0 L13,0 L13,1 L12,1 L12,2 L11,2 L11,3 L10,3 L10,4 L9,4 L9,5 L8,5 L8,6 L7,6 L7,7 L6,7 L6,8 L5,8 L5,9 L4,9 L4,10 L3,10 L3,11 L2,11 L2,12 L1,12 L1,13 L0,13 L0,14 L1,14 L1,15 L2,15 L2,16 L3,16 L3,14 Z" fill="#008000"/>
  <path d="M12,6 L12,7 L11,7 L11,6 L12,6 Z" fill="#FFFF00"/>
</svg>